<?xml version="1.0" encoding="utf-8"?>
<svg version="1.1" id="Layer_1" x="0px" y="0px" width="1060px" height="782px" viewBox="0 0 1060 782" enable-background="new 0 0 1060 782" xmlns="http://www.w3.org/2000/svg">
  <path d="M 525.403 293.05 C 393.77 293.05 274.175 308.875 185.633 334.665 L 185.633 554.963 C 274.175 580.753 393.77 596.577 525.403 596.577 C 676.06 596.577 810.938 575.848 901.537 543.175 L 901.537 346.457 C 810.938 313.781 676.06 293.05 525.403 293.05" style="fill: rgb(45, 101, 160);"/>
  <path d="M 907.423 492.442 C 903.567 481.779 902.794 468.288 906.063 455.28 C 911.913 431.991 928.484 419.082 943.076 426.447 C 946.694 428.274 949.849 431.177 952.463 434.865 C 952.702 434.864 952.942 434.865 953.178 434.881 C 953.178 434.881 997.73 487.987 956.491 550.884 C 955.595 554.453 879.957 642.602 862.448 645.408 C 850.987 647.244 877.338 555.41 907.423 492.442" style="fill: rgb(45, 101, 160);"/>
  <path d="M 176.479 482.021 C 181.779 472.39 183.637 459.233 180.696 445.595 C 175.43 421.179 156.786 404.486 139.054 408.31 C 134.656 409.258 130.729 411.382 127.388 414.409 C 127.106 414.35 126.824 414.296 126.543 414.256 C 126.543 414.256 70.251 456.208 114.486 528.18 C 115.291 531.921 198.337 637.018 218.797 643.944 C 232.188 648.475 207.55 551.418 176.479 482.021" style="fill: rgb(45, 101, 160);"/>
  <path d="M 97.467 488.066 L 97.474 488.081 C 97.659 488.226 97.831 488.357 97.467 488.066" fill="#E23A26"/>
  <path d="M 993.119 412.903 C 992.239 409.839 991.363 406.777 990.457 403.741 L 1021.14 359.29 C 1024.27 354.768 1024.911 348.892 1022.87 343.735 C 1020.83 338.605 1016.38 334.925 1011.11 334.025 L 959.223 325.22 C 957.215 321.118 955.108 317.078 952.994 313.07 L 974.791 263.167 C 977.034 258.08 976.56 252.172 973.588 247.559 C 970.627 242.923 965.598 240.215 960.239 240.426 L 907.583 242.339 C 904.856 238.789 902.087 235.271 899.261 231.818 L 911.363 178.328 C 912.588 172.895 911.041 167.21 907.259 163.264 C 903.497 159.332 898.03 157.705 892.833 158.981 L 841.544 171.589 C 838.223 168.654 834.845 165.756 831.43 162.916 L 833.279 108.002 C 833.476 102.443 830.885 97.16 826.434 94.077 C 821.989 90.973 816.341 90.504 811.479 92.811 L 763.631 115.558 C 759.777 113.348 755.903 111.158 751.987 109.041 L 743.532 54.926 C 742.675 49.443 739.146 44.787 734.206 42.66 C 729.283 40.523 723.638 41.213 719.315 44.468 L 676.656 76.475 C 672.456 75.08 668.237 73.743 663.964 72.464 L 645.578 21.148 C 643.708 15.919 639.396 12.077 634.14 10.997 C 628.902 9.925 623.51 11.739 619.877 15.799 L 583.97 55.97 C 579.628 55.47 575.285 55.014 570.927 54.639 L 543.204 7.926 C 540.393 3.194 535.433 0.314 530.088 0.314 C 524.754 0.314 519.784 3.194 516.998 7.926 L 489.265 54.639 C 484.907 55.014 480.543 55.47 476.209 55.97 L 440.299 15.799 C 436.663 11.739 431.252 9.925 426.031 10.997 C 420.776 12.089 416.458 15.919 414.598 21.148 L 396.196 72.464 C 391.936 73.743 387.715 75.091 383.505 76.475 L 340.861 44.468 C 336.525 41.202 330.881 40.513 325.945 42.66 C 321.026 44.787 317.484 49.443 316.632 54.926 L 308.171 109.041 C 304.257 111.158 300.382 113.335 296.518 115.558 L 248.676 92.811 C 243.818 90.495 238.147 90.973 233.722 94.077 C 229.277 97.16 226.68 102.443 226.882 108.002 L 228.717 162.916 C 225.312 165.756 221.943 168.654 218.605 171.589 L 167.326 158.981 C 162.115 157.716 156.656 159.332 152.885 163.264 C 149.09 167.21 147.553 172.895 148.772 178.328 L 160.851 231.818 C 158.049 235.285 155.276 238.789 152.558 242.339 L 99.903 240.426 C 94.589 240.269 89.517 242.923 86.547 247.559 C 83.573 252.172 83.122 258.08 85.336 263.167 L 107.15 313.07 C 105.031 317.078 102.926 321.118 100.901 325.22 L 49.019 334.025 C 43.748 334.913 39.304 338.591 37.254 343.735 C 35.217 348.892 35.879 354.768 38.989 359.29 L 69.679 403.741 C 69.443 404.525 69.224 405.317 68.989 406.105 L 52.126 424.016 L 97.467 488.066 C 97.467 488.066 532.619 688.797 936.264 491.462 C 982.372 483.189 993.119 412.903 993.119 412.903" style="fill: rgb(49, 120, 198);"/>
  <path d="M 608.303 376.759 C 608.303 376.759 656.46 324.03 704.618 376.759 C 704.618 376.759 742.458 447.071 704.618 482.222 C 704.618 482.222 642.701 531.44 608.303 482.222 C 608.303 482.222 567.024 443.55 608.303 376.759" style="fill: rgb(17, 42, 70);"/>
  <path d="M 664.057 396.32 C 664.057 416.852 651.954 433.499 637.028 433.499 C 622.104 433.499 610.001 416.853 610.001 396.32 C 610.001 375.787 622.105 359.14 637.028 359.14 C 651.954 359.14 664.057 375.788 664.057 396.32" fill="#FFFFFF"/>
  <path d="M 393.365 362.361 C 393.365 362.361 475.973 325.785 498.519 407.423 C 498.519 407.423 522.137 502.577 430.682 507.948 C 430.682 507.948 314.06 485.486 393.365 362.361" style="fill: rgb(17, 42, 70);"/>
  <path d="M 434.855 397.668 C 434.855 418.841 422.375 436.014 406.978 436.014 C 391.587 436.014 379.104 418.841 379.104 397.668 C 379.104 376.49 391.587 359.322 406.978 359.322 C 422.375 359.322 434.855 376.49 434.855 397.668" fill="#FFFFFF"/>
  <path d="M 111.602 499.216 C 122.569 486.753 149.213 471.659 147.172 452.934 C 143.519 419.408 115.716 394.935 85.073 398.276 C 77.474 399.103 70.415 401.568 64.15 405.311 C 63.687 405.205 63.225 405.1 62.762 405.017 C 62.762 405.017 -40.87 455.89 18.198 557.674 C 18.755 562.811 136.045 713.342 168.985 724.805 C 190.544 732.307 149.074 596.165 111.602 499.216" style="fill: rgb(49, 120, 198);"/>
  <path d="M 953.549 494.673 C 940.857 483.973 907.387 474.255 906.629 455.435 C 905.274 421.738 929.141 393.414 959.941 392.175 C 967.579 391.867 974.924 393.258 981.675 396.032 C 982.117 395.858 982.559 395.685 983.004 395.535 C 983.004 395.535 1093.029 430.486 1049.699 539.901 C 1049.909 545.064 956.231 711.317 925.354 727.536 C 905.146 738.151 930.861 596.105 953.549 494.673" style="fill: rgb(49, 120, 198);"/>
  <path d="M 191.142 495.558 C 191.142 495.558 189.759 632.854 324.308 663.491 L 352.362 607.128 C 352.362 607.128 254.867 616.559 247.367 495.559 L 191.142 495.559" style="fill: rgb(49, 120, 198);"/>
  <path d="M 876.362 495.558 C 876.362 495.558 877.744 632.854 743.195 663.491 L 715.14 607.128 C 715.14 607.128 812.635 616.559 820.135 495.559 L 876.362 495.559" style="fill: rgb(49, 120, 198);"/>
  <path d="M 779.167 635.591 C 758.917 586.65 693.572 567.218 633.216 592.192 C 580.09 614.172 548.579 663.223 555.592 708.037 C 597.538 707.385 642.532 704.666 686.328 698.319 C 686.328 698.319 660.491 740.082 622.471 776.53 C 648.037 783.129 677.854 781.298 706.547 769.426 C 766.904 744.452 799.417 684.532 779.167 635.591" style="fill: rgb(49, 120, 198);"/>
  <path d="M 404.746 695.984 C 404.746 695.984 459.949 703.279 535.416 705.139 C 542.026 657.628 506.036 607.347 448.615 587.897 C 385.177 566.409 319.626 590.689 302.201 642.128 C 284.776 693.568 322.077 752.689 385.515 774.177 C 413.636 783.703 442.168 784.226 466.744 777.384 C 429.833 740.88 404.746 695.984 404.746 695.984" style="fill: rgb(49, 120, 198);"/>
</svg>
